{"glyphs":{"\u0000":{"ha":0,"x_min":0,"x_max":0,"o":""},"\r":{"ha":347,"x_min":0,"x_max":0,"o":""}," ":{"ha":278,"x_min":0,"x_max":0,"o":""},"A":{"ha":553,"x_min":0,"x_max":0,"o":"m 329 0 l 553 0 l 413 972 l 140 972 l 1 0 l 224 0 l 238 215 l 315 215 z m 250 396 l 269 693 l 283 693 l 304 396 z "},"B":{"ha":568,"x_min":0,"x_max":0,"o":"m 226 0 l 201 169 l 215 169 b 388 -14 243 26 304 -14 b 561 269 507 -14 561 69 l 561 306 b 339 525 561 486 476 525 l 339 539 b 547 754 485 539 547 581 b 288 972 547 929 476 972 l 28 972 l 28 0 z m 250 631 l 250 774 l 288 774 b 339 703 325 774 339 750 b 288 631 339 656 325 631 z m 250 432 l 278 432 b 339 311 318 432 339 418 b 293 185 339 204 326 185 b 250 332 268 185 250 211 z "},"C":{"ha":561,"x_min":0,"x_max":0,"o":"m 540 406 b 531 496 540 478 531 496 l 315 496 b 325 307 315 496 325 450 b 281 185 325 208 313 185 b 236 307 249 185 236 208 l 236 665 b 281 788 236 764 249 788 b 325 665 313 788 325 764 l 325 619 l 540 619 l 540 721 b 281 986 540 894 468 986 b 21 721 92 986 21 894 l 21 251 b 281 -14 21 78 92 -14 b 540 251 468 -14 540 78 z "},"D":{"ha":568,"x_min":0,"x_max":0,"o":"m 547 707 b 288 972 547 894 475 972 l 28 972 l 28 0 l 226 0 l 201 156 l 217 156 b 388 -14 243 26 304 -14 b 547 269 507 -14 547 69 z m 339 325 b 293 185 339 213 326 185 b 250 332 268 185 250 211 l 250 774 l 288 774 b 339 638 325 774 339 750 z "},"E":{"ha":450,"x_min":0,"x_max":0,"o":"m 432 972 l 28 972 l 28 0 l 432 0 l 432 199 l 250 199 l 250 406 l 411 406 l 411 586 l 250 586 l 250 774 l 432 774 z "},"F":{"ha":440,"x_min":0,"x_max":0,"o":"m 250 374 l 418 374 l 418 572 l 250 572 l 250 774 l 432 774 l 432 972 l 28 972 l 28 0 l 250 0 z "},"G":{"ha":564,"x_min":0,"x_max":0,"o":"m 540 576 l 229 576 l 229 665 b 281 788 229 764 243 788 b 332 665 318 788 332 764 l 332 619 l 540 619 l 540 721 b 281 986 540 894 468 986 b 21 721 92 986 21 894 l 21 269 b 189 -14 21 83 69 -14 b 357 169 275 -14 331 26 l 371 169 l 340 0 l 539 0 z m 229 396 l 318 396 l 318 332 b 275 185 318 211 300 185 b 229 325 240 185 229 213 z "},"H":{"ha":575,"x_min":0,"x_max":0,"o":"m 325 972 l 325 593 l 250 593 l 250 972 l 28 972 l 28 0 l 250 0 l 250 381 l 325 381 l 325 0 l 547 0 l 547 972 z "},"I":{"ha":279,"x_min":0,"x_max":0,"o":"m 29 0 l 251 0 l 251 972 l 29 972 z "},"J":{"ha":536,"x_min":0,"x_max":0,"o":"m 222 369 b 232 506 222 469 232 506 l 17 506 b 7 401 17 506 7 486 l 7 251 b 260 -14 7 78 78 -14 b 513 251 440 -14 513 78 l 513 972 l 290 972 l 290 307 b 254 185 290 208 281 185 b 222 307 233 185 222 208 z "},"K":{"ha":563,"x_min":0,"x_max":0,"o":"m 539 300 b 360 532 539 465 504 532 l 360 546 l 440 556 l 547 972 l 319 972 l 250 593 l 236 593 l 236 972 l 28 972 l 28 0 l 236 0 l 236 474 l 253 474 b 324 339 297 474 324 451 l 324 90 b 333 0 324 19 333 0 l 549 0 b 539 190 549 0 539 47 z "},"L":{"ha":433,"x_min":0,"x_max":0,"o":"m 432 199 l 250 199 l 250 972 l 28 972 l 28 0 l 432 0 z "},"M":{"ha":749,"x_min":0,"x_max":0,"o":"m 432 972 l 381 342 l 367 342 l 315 972 l 28 972 l 28 0 l 250 0 l 236 558 l 250 558 l 306 0 l 442 0 l 497 558 l 511 558 l 497 0 l 719 0 l 719 972 z "},"N":{"ha":575,"x_min":0,"x_max":0,"o":"m 278 972 l 28 972 l 28 0 l 222 0 l 208 554 l 222 554 l 297 0 l 547 0 l 547 972 l 353 972 l 367 425 l 353 425 z "},"O":{"ha":561,"x_min":0,"x_max":0,"o":"m 281 986 b 21 722 92 986 21 894 l 21 251 b 281 -14 21 78 92 -14 b 540 251 468 -14 540 78 l 540 722 b 281 986 540 894 468 986 z m 325 307 b 281 185 325 208 310 185 b 236 307 251 185 236 208 l 236 665 b 281 788 236 764 250 788 b 325 665 310 788 325 764 z "},"P":{"ha":554,"x_min":0,"x_max":0,"o":"m 388 374 b 547 658 503 374 547 451 l 547 686 b 288 972 547 907 475 972 l 28 972 l 28 0 l 250 0 l 250 338 l 201 539 l 217 539 b 388 374 247 411 293 374 z m 250 774 l 288 774 b 339 686 325 774 339 756 l 339 658 b 296 572 339 593 326 572 b 250 660 268 572 250 583 z "},"Q":{"ha":561,"x_min":0,"x_max":0,"o":"m 308 0 l 539 0 l 539 199 l 349 160 l 349 174 b 539 479 511 215 539 283 l 540 721 b 281 986 540 894 468 986 b 21 722 92 986 21 894 l 21 269 b 308 0 21 79 118 0 z m 325 353 b 281 231 325 254 310 231 b 236 353 251 231 236 254 l 236 665 b 281 788 236 764 250 788 b 325 665 310 788 325 764 z "},"R":{"ha":575,"x_min":0,"x_max":0,"o":"m 551 292 b 346 526 551 478 496 526 l 346 540 b 554 761 506 540 554 601 b 301 972 554 925 483 972 l 28 972 l 28 0 l 250 0 l 250 432 l 257 432 b 329 297 303 432 329 408 l 329 90 b 339 0 329 19 339 0 l 561 0 b 551 190 561 0 551 47 z m 250 631 l 250 774 l 301 774 b 353 703 339 774 353 749 b 301 631 353 651 339 631 z "},"S":{"ha":549,"x_min":0,"x_max":0,"o":"m 224 289 b 233 407 224 375 233 407 l 25 407 b 15 317 25 407 15 389 l 15 256 b 275 -14 15 82 86 -14 b 535 256 463 -14 535 82 l 535 283 b 374 563 535 447 458 504 b 231 722 300 613 231 657 l 231 736 b 269 788 231 768 243 788 b 326 665 307 788 326 764 l 326 619 l 535 619 l 535 721 b 275 986 535 894 463 986 b 15 749 86 986 15 883 l 15 735 b 179 474 15 586 97 528 b 318 294 254 425 318 390 l 318 281 b 271 185 318 211 301 185 b 224 289 239 185 224 219 z "},"T":{"ha":483,"x_min":0,"x_max":0,"o":"m 353 774 l 483 774 l 483 972 l 0 972 l 0 774 l 131 774 l 131 0 l 353 0 z "},"U":{"ha":567,"x_min":0,"x_max":0,"o":"m 24 251 b 283 -14 24 78 94 -14 b 543 251 471 -14 543 78 l 543 972 l 335 972 l 335 307 b 283 185 335 208 321 185 b 232 307 246 185 232 208 l 232 972 l 24 972 z "},"V":{"ha":539,"x_min":0,"x_max":0,"o":"m 315 972 l 276 363 l 263 363 l 222 972 l 0 972 l 132 0 l 406 0 l 538 972 z "},"W":{"ha":790,"x_min":0,"x_max":0,"o":"m 453 0 l 713 0 l 783 972 l 547 972 l 533 414 l 519 414 l 478 972 l 313 972 l 271 414 l 257 414 l 243 972 l 7 972 l 76 0 l 336 0 l 388 540 l 403 540 z "},"X":{"ha":519,"x_min":0,"x_max":0,"o":"m 0 0 l 215 0 l 253 340 l 265 340 l 304 0 l 519 0 l 399 529 l 519 972 l 304 972 l 265 715 l 253 715 l 215 972 l 0 972 l 121 529 z "},"Y":{"ha":533,"x_min":0,"x_max":0,"o":"m 156 0 l 378 0 l 378 465 l 533 972 l 311 972 l 272 701 l 260 701 l 222 972 l 0 972 l 156 465 z "},"Z":{"ha":513,"x_min":0,"x_max":0,"o":"m 281 208 l 506 972 l 22 972 l 22 774 l 228 774 l 233 764 l 8 0 l 492 0 l 492 199 l 288 199 z "},"a":{"ha":514,"x_min":0,"x_max":0,"o":"m 306 0 l 493 0 l 493 471 b 254 736 493 658 414 736 b 15 499 93 736 15 644 l 15 429 l 210 429 l 210 457 b 251 551 210 528 218 551 b 293 429 283 551 293 528 l 293 415 l 268 415 b 14 194 90 415 14 338 b 160 -14 14 53 65 -14 b 318 165 242 -14 299 22 l 333 165 z m 293 317 l 293 272 b 251 185 293 197 276 185 b 210 250 222 185 210 203 b 268 317 210 296 228 317 z "},"b":{"ha":565,"x_min":0,"x_max":0,"o":"m 231 972 l 24 972 l 24 0 l 231 0 l 206 183 l 219 183 b 378 -14 240 26 294 -14 b 551 265 497 -14 551 65 l 551 457 b 378 736 551 657 497 736 b 219 543 294 736 240 686 l 206 543 l 231 722 z m 343 321 b 299 185 343 208 333 185 b 254 328 274 185 254 207 l 254 394 b 299 538 254 515 274 538 b 343 401 333 538 343 514 z "},"c":{"ha":506,"x_min":0,"x_max":0,"o":"m 492 281 b 482 367 492 336 482 367 l 294 367 b 304 254 294 367 304 321 b 253 171 304 200 286 171 b 201 293 219 171 201 193 l 201 429 b 254 551 201 531 221 551 b 304 443 285 551 304 532 l 492 443 l 492 471 b 253 736 492 644 419 736 b 14 471 85 736 14 644 l 14 251 b 260 -14 14 78 92 -14 b 492 251 426 -14 492 78 z "},"d":{"ha":565,"x_min":0,"x_max":0,"o":"m 333 972 l 333 722 l 360 543 l 344 543 b 188 736 325 686 271 736 b 14 457 67 736 14 657 l 14 265 b 188 -14 14 65 67 -14 b 344 183 271 -14 325 26 l 360 183 l 335 0 l 542 0 l 542 972 z m 222 321 l 222 401 b 267 538 222 514 232 538 b 311 394 292 538 311 515 l 311 328 b 267 185 311 207 292 185 b 222 321 232 185 222 208 z "},"e":{"ha":506,"x_min":0,"x_max":0,"o":"m 256 171 b 201 293 218 171 201 194 l 201 346 l 492 346 l 492 471 b 253 736 492 644 421 736 b 14 471 85 736 14 644 l 14 251 b 260 -14 14 78 92 -14 b 490 213 413 -14 490 63 l 490 233 b 481 311 490 282 481 311 l 293 311 b 303 231 293 311 303 278 b 256 171 303 192 288 171 z m 254 551 b 304 443 285 551 304 531 l 201 444 b 254 551 204 532 224 551 z "},"g":{"ha":513,"x_min":0,"x_max":0,"o":"m 353 558 l 503 544 l 503 722 l 256 722 b 10 457 88 722 10 631 l 10 313 b 213 65 10 150 103 118 b 314 -28 293 28 314 15 b 258 -79 314 -64 293 -79 b 197 -21 219 -79 197 -60 b 207 46 197 28 207 46 l 19 46 b 10 -49 19 46 10 18 b 256 -264 10 -192 93 -264 b 501 -68 418 -264 501 -211 b 306 117 501 58 453 117 l 306 131 b 501 335 460 131 501 182 b 353 544 501 485 463 525 z m 314 371 b 256 203 314 235 293 203 b 197 371 218 203 197 235 b 256 538 197 507 218 538 b 314 371 293 538 314 507 z "},"h":{"ha":550,"x_min":0,"x_max":0,"o":"m 529 0 l 529 457 b 376 736 529 644 493 736 b 211 557 294 736 232 700 l 197 557 l 232 722 l 232 972 l 24 972 l 24 0 l 232 0 l 232 394 b 279 538 232 515 251 538 b 321 401 308 538 321 514 l 321 0 z "},"i":{"ha":256,"x_min":0,"x_max":0,"o":"m 128 986 b 21 881 56 986 21 938 l 21 868 b 128 763 21 813 56 763 b 235 868 201 763 235 813 l 235 881 b 128 986 235 938 201 986 z m 232 722 l 24 722 l 24 0 l 232 0 z "},"j":{"ha":261,"x_min":0,"x_max":0,"o":"m 132 986 b 25 881 60 986 25 938 l 25 868 b 132 763 25 813 60 763 b 239 868 206 763 239 813 l 239 881 b 132 986 239 938 206 986 z m 29 722 l 29 57 b -99 -65 29 -42 -15 -65 l -99 -250 l -29 -250 b 238 15 153 -250 238 -158 l 238 722 z "},"k":{"ha":539,"x_min":0,"x_max":0,"o":"m 521 238 b 356 400 521 360 476 396 l 356 414 l 436 426 l 528 722 l 308 722 l 246 454 l 232 454 l 232 972 l 24 972 l 24 0 l 232 0 l 232 367 l 242 367 b 313 265 286 367 313 349 l 313 90 b 322 0 314 19 322 0 l 531 0 b 521 190 531 0 522 47 z "},"l":{"ha":249,"x_min":0,"x_max":0,"o":"m 225 972 l 24 972 l 24 0 l 225 0 z "},"m":{"ha":833,"x_min":0,"x_max":0,"o":"m 501 646 b 372 736 482 708 440 736 b 211 543 297 736 232 700 l 197 543 l 222 722 l 24 722 l 24 0 l 232 0 l 232 394 b 275 538 232 515 254 538 b 314 401 297 538 314 514 l 314 0 l 522 0 l 522 394 b 565 538 522 515 544 538 b 603 401 586 538 603 514 l 603 0 l 811 0 l 811 457 b 663 736 811 644 782 736 b 501 543 588 736 522 700 l 488 543 z "},"n":{"ha":550,"x_min":0,"x_max":0,"o":"m 529 0 l 529 457 b 376 736 529 644 503 736 b 211 543 294 736 232 700 l 197 543 l 222 722 l 24 722 l 24 0 l 232 0 l 232 394 b 279 538 232 515 251 538 b 321 401 308 538 321 514 l 321 0 z "},"o":{"ha":519,"x_min":0,"x_max":0,"o":"m 260 736 b 14 471 92 736 14 644 l 14 251 b 260 -14 14 78 92 -14 b 506 251 426 -14 506 78 l 506 471 b 260 736 506 644 426 736 z m 318 293 b 260 171 318 194 293 171 b 201 293 226 171 201 194 l 201 429 b 260 551 201 528 226 551 b 318 429 293 551 318 528 z "},"p":{"ha":565,"x_min":0,"x_max":0,"o":"m 231 -250 l 231 0 l 206 179 l 219 179 b 378 -14 240 36 294 -14 b 551 265 497 -14 551 65 l 551 457 b 378 736 551 657 497 736 b 219 539 294 736 240 696 l 206 539 l 231 722 l 24 722 l 24 -250 z m 343 401 l 343 321 b 299 185 343 208 333 185 b 254 328 274 185 254 207 l 254 394 b 299 538 254 515 274 538 b 343 401 333 538 343 514 z "},"q":{"ha":565,"x_min":0,"x_max":0,"o":"m 333 -250 l 542 -250 l 542 722 l 333 722 l 360 539 l 344 539 b 188 736 325 696 271 736 b 14 457 67 736 14 657 l 14 265 b 188 -14 14 65 67 -14 b 344 179 271 -14 325 36 l 360 179 l 335 0 z m 222 401 b 267 538 222 514 232 538 b 311 394 292 538 311 515 l 311 328 b 267 185 311 207 292 185 b 222 321 232 185 222 208 z "},"r":{"ha":515,"x_min":0,"x_max":0,"o":"m 508 346 l 508 471 b 364 736 508 644 475 736 b 211 543 276 736 232 686 l 197 543 l 222 722 l 24 722 l 24 0 l 232 0 l 232 394 b 272 538 232 515 244 538 b 307 454 297 538 307 518 l 307 346 z "},"s":{"ha":486,"x_min":0,"x_max":0,"o":"m 15 211 b 254 -14 15 50 108 -14 b 471 199 389 -14 471 58 l 471 213 b 311 436 471 335 410 383 b 206 518 250 469 206 482 b 247 551 206 536 218 551 b 297 471 279 551 297 531 l 471 471 b 238 736 471 660 394 736 b 15 543 81 736 15 650 b 189 347 15 429 113 390 b 297 229 261 308 299 285 b 244 171 297 188 275 171 b 189 238 204 171 189 200 b 197 325 189 286 197 325 l 25 325 b 15 211 25 325 15 276 z "},"t":{"ha":365,"x_min":0,"x_max":0,"o":"m 238 931 l 43 931 l 43 722 l 1 722 l 1 543 l 43 543 l 43 238 b 282 0 43 64 100 0 l 351 0 l 351 185 l 324 185 b 238 279 256 185 238 204 l 238 543 l 338 543 l 338 722 l 238 722 z "},"u":{"ha":550,"x_min":0,"x_max":0,"o":"m 21 722 l 21 265 b 172 -14 21 79 47 -14 b 338 179 254 -14 318 22 l 353 179 l 326 0 l 526 0 l 526 722 l 318 722 l 318 328 b 271 185 318 207 299 185 b 229 321 242 185 229 208 l 229 722 z "},"v":{"ha":504,"x_min":0,"x_max":0,"o":"m 306 722 l 260 283 l 246 283 l 199 722 l 0 722 l 132 0 l 372 0 l 504 722 z "},"w":{"ha":763,"x_min":0,"x_max":0,"o":"m 439 0 l 678 0 l 763 722 l 547 722 l 526 314 l 513 314 l 464 722 l 299 722 l 250 314 l 236 314 l 215 722 l 0 722 l 83 0 l 322 0 l 374 439 l 389 439 z "},"x":{"ha":494,"x_min":0,"x_max":0,"o":"m 306 0 l 494 0 l 394 379 l 494 722 l 306 722 l 254 489 l 240 489 l 189 722 l 0 722 l 100 379 l 0 0 l 189 0 l 240 267 l 254 267 z "},"y":{"ha":518,"x_min":0,"x_max":0,"o":"m 206 0 l 146 -250 l 340 -250 l 518 722 l 313 722 l 274 283 l 260 283 l 206 722 l 0 722 l 146 0 z "},"z":{"ha":443,"x_min":0,"x_max":0,"o":"m 429 179 l 258 179 l 251 189 l 443 722 l 15 722 l 15 543 l 186 543 l 193 533 l 1 0 l 429 0 z "},"f":{"ha":365,"x_min":0,"x_max":0,"o":"m 244 0 l 244 543 l 344 543 l 344 722 l 244 722 b 331 788 249 775 264 788 l 358 788 l 358 972 l 289 972 b 36 735 107 972 36 908 l 36 722 l -6 722 l -6 543 l 36 543 l 36 0 z "},".":{"ha":219,"x_min":0,"x_max":0,"o":"m 110 -14 b 206 83 182 -14 206 21 l 206 94 b 110 192 206 157 182 192 b 14 94 39 192 14 157 l 14 83 b 110 -14 14 21 39 -14 z "},",":{"ha":219,"x_min":0,"x_max":0,"o":"m 28 -151 l 138 -151 l 200 38 b 206 83 203 49 206 67 l 206 94 b 110 192 206 157 182 192 b 14 94 39 192 14 157 l 14 83 b 72 -14 14 21 39 -14 l 78 -21 z "},"(":{"ha":308,"x_min":0,"x_max":0,"o":"m 21 288 b 163 -250 21 53 79 -150 l 308 -250 b 208 357 260 -139 208 65 l 208 365 b 308 972 208 657 260 861 l 163 972 b 21 435 79 872 21 669 z "},")":{"ha":308,"x_min":0,"x_max":0,"o":"m 288 288 l 288 435 b 146 972 288 669 231 872 l 0 972 b 100 365 49 861 100 657 l 100 357 b 0 -250 100 65 49 -139 l 146 -250 b 288 288 231 -150 288 53 z "},"/":{"ha":406,"x_min":0,"x_max":0,"o":"m 1 -250 l 188 -250 l 404 972 l 218 972 z "},"\\":{"ha":406,"x_min":0,"x_max":0,"o":"m 404 -250 l 188 972 l 1 972 l 218 -250 z "},"&":{"ha":596,"x_min":0,"x_max":0,"o":"m 243 703 b 293 788 243 760 254 788 b 344 693 331 788 344 764 l 553 693 l 553 721 b 293 986 553 894 482 986 b 35 754 121 986 35 908 b 243 539 35 581 97 539 l 243 525 b 21 306 106 525 21 486 l 21 269 b 193 -14 21 72 76 -14 b 365 169 276 -14 339 26 l 379 169 l 354 0 l 554 0 l 554 432 l 596 432 l 596 631 l 293 631 b 243 703 257 631 242 656 z m 332 332 b 289 185 332 207 314 185 b 243 311 260 185 243 210 b 303 432 243 418 264 432 l 332 432 z "}}}
